<svg width="362" height="109" viewBox="0 0 362 109" fill="none" xmlns="http://www.w3.org/2000/svg">
<path d="M108.5 88.5C103.479 88.5 99.8542 87.25 97.625 84.75C95.4167 82.25 94.3125 78.2708 94.3125 72.8125V67.4375H105.188V74.3125C105.188 75.5833 105.375 76.5833 105.75 77.3125C106.146 78.0208 106.823 78.375 107.781 78.375C108.781 78.375 109.469 78.0833 109.844 77.5C110.24 76.9167 110.438 75.9583 110.438 74.625C110.438 72.9375 110.271 71.5312 109.938 70.4062C109.604 69.2604 109.021 68.1771 108.188 67.1562C107.375 66.1146 106.24 64.9062 104.781 63.5312L99.8438 58.8438C96.1562 55.3646 94.3125 51.3854 94.3125 46.9062C94.3125 42.2188 95.3958 38.6458 97.5625 36.1875C99.75 33.7292 102.906 32.5 107.031 32.5C112.073 32.5 115.646 33.8438 117.75 36.5312C119.875 39.2188 120.938 43.3021 120.938 48.7812H109.75V45C109.75 44.25 109.531 43.6667 109.094 43.25C108.677 42.8333 108.104 42.625 107.375 42.625C106.5 42.625 105.854 42.875 105.438 43.375C105.042 43.8542 104.844 44.4792 104.844 45.25C104.844 46.0208 105.052 46.8542 105.469 47.75C105.885 48.6458 106.708 49.6771 107.938 50.8438L114.281 56.9375C115.552 58.1458 116.719 59.4271 117.781 60.7812C118.844 62.1146 119.698 63.6771 120.344 65.4688C120.99 67.2396 121.312 69.4062 121.312 71.9688C121.312 77.1354 120.354 81.1875 118.438 84.125C116.542 87.0417 113.229 88.5 108.5 88.5ZM124.5 88V39.25H135.125V88H124.5ZM139.5 88V39.25H150.812L156.5 65.6875V39.25H166.5V88H155.75L149.625 61.5938V88H139.5ZM182.719 88.5C174.865 88.5 170.938 82.875 170.938 71.625V54.3438C170.938 44.0729 175.438 38.9375 184.438 38.9375C188.146 38.9375 190.99 39.6146 192.969 40.9688C194.948 42.3021 196.312 44.2188 197.062 46.7188C197.812 49.2188 198.188 52.2292 198.188 55.75H187.438V53.25C187.438 52.0625 187.271 51.0729 186.938 50.2812C186.625 49.4688 185.958 49.0625 184.938 49.0625C183.667 49.0625 182.823 49.4896 182.406 50.3438C182.01 51.1979 181.812 52.1354 181.812 53.1562V73.375C181.812 74.8542 182 76.0625 182.375 77C182.771 77.9167 183.531 78.375 184.656 78.375C185.823 78.375 186.594 77.9167 186.969 77C187.365 76.0625 187.562 74.8333 187.562 73.3125V69.375H184.625V59.875H198.062V88H193.656L191.781 83.375C189.865 86.7917 186.844 88.5 182.719 88.5Z" fill="#E2E2E2"/>
<path d="M215.688 88.5C211.292 88.5 207.927 87.1771 205.594 84.5312C203.281 81.8646 202.125 78.0208 202.125 73V46.875C202.125 42.1667 203.271 38.5938 205.562 36.1562C207.875 33.7188 211.25 32.5 215.688 32.5C220.125 32.5 223.49 33.7188 225.781 36.1562C228.094 38.5938 229.25 42.1667 229.25 46.875V73C229.25 78.0208 228.083 81.8646 225.75 84.5312C223.438 87.1771 220.083 88.5 215.688 88.5ZM215.781 78.375C217.448 78.375 218.281 76.7604 218.281 73.5312V46.6875C218.281 43.9792 217.469 42.625 215.844 42.625C214.01 42.625 213.094 44.0104 213.094 46.7812V73.5938C213.094 75.3021 213.302 76.5312 213.719 77.2812C214.135 78.0104 214.823 78.375 215.781 78.375ZM233.688 88V39.25H245L250.688 65.6875V39.25H260.688V88H249.938L243.812 61.5938V88H233.688ZM265.562 88V39.25H276.562V78.625H287.875V88H265.562ZM290.5 88V39.25H301.125V88H290.5ZM305.5 88V39.25H316.812L322.5 65.6875V39.25H332.5V88H321.75L315.625 61.5938V88H305.5ZM337.375 88V39.25H359.375V49.875H348.562V57.9375H358.938V68.2812H348.562V77.2812H360.094V88H337.375Z" fill="#43BD2B"/>
<path d="M56.3403 92.0931C51.9135 92.0931 48.124 90.5355 44.9716 87.4204C41.8192 84.3053 40.243 80.5605 40.243 76.1861C40.243 71.8117 41.8192 68.0669 44.9716 64.9518C48.124 61.8367 51.9135 60.2791 56.3403 60.2791C57.8829 60.2791 59.3089 60.462 60.6181 60.8279C61.9273 61.1938 63.1843 61.7399 64.3889 62.4663V28.4652H88.5347V40.3954H72.4375V76.1861C72.4375 80.5605 70.8613 84.3053 67.7089 87.4204C64.5565 90.5355 60.767 92.0931 56.3403 92.0931ZM8.04858 76.1861C8.04858 69.6245 9.32295 63.4433 11.8717 57.6425C14.4204 51.8418 17.8746 46.7887 22.2343 42.4832C26.5939 38.1777 31.7088 34.7643 37.5789 32.2431C43.4491 29.7218 49.7028 28.4625 56.3403 28.4652V36.4186C50.8404 36.4186 45.6423 37.4632 40.7461 39.5523C35.8498 41.6414 31.5747 44.4914 27.9206 48.1023C24.2665 51.7132 21.3825 55.9206 19.2683 60.7245C17.1542 65.5284 16.0972 70.6823 16.0972 76.1861H8.04858ZM24.1458 76.1861C24.1458 71.8117 25.0016 67.6851 26.7133 63.8065C28.425 59.9278 30.739 56.5476 33.6552 53.6658C36.5715 50.784 39.9747 48.5146 43.8649 46.8576C47.7551 45.2006 51.9135 44.3721 56.3403 44.3721V52.3256C49.6331 52.3256 43.932 54.6454 39.237 59.2849C34.5419 63.9245 32.1944 69.5582 32.1944 76.1861H24.1458Z" fill="#43BD2B"/>
<path d="M55.5577 84.9902C51.6244 84.9902 48.2583 83.7287 45.4593 81.2058C42.6603 78.6828 41.2608 75.6536 41.2608 72.1181C41.2608 68.5825 42.6603 65.5519 45.4593 63.0261C48.2583 60.5003 51.6244 59.2403 55.5577 59.246C57.3845 59.246 59.1176 59.5377 60.757 60.1213C62.3995 60.7077 63.8435 61.5873 65.0889 62.7601V17.9866H88.3642V28.8807H69.8546V72.1181C69.8546 75.6565 68.4535 78.6857 65.6513 81.2058C62.8491 83.7258 59.4846 84.9873 55.5577 84.9902Z" fill="#F5F5F5"/>
</svg>
